<svg viewBox="0 0 400 520" width="760" height="760" preserveAspectRatio="xMidYMid meet"
     xmlns="http://www.w3.org/2000/svg">
  <!-- Natural Earth Admin 0 - Countries 1:10m, v5.1.1 (public domain).
       Germany (ADM0_A3=DEU), projected and simplified for this weather map.
       Source: https://www.naturalearthdata.com/downloads/10m-cultural-vectors/ -->
  <path id="germany-outline" d="M314.2,389.5 L310.9,402.7 L302.0,399.9 L300.4,410.5 L277.8,424.7 L286.3,439.1 L283.0,445.7 L289.1,449.2 L286.7,459.6 L279.2,454.8 L278.6,448.8 L269.6,450.8 L267.2,447.4 L260.9,448.1 L261.0,445.3 L258.7,452.1 L240.0,452.9 L227.0,463.5 L225.6,461.6 L218.3,463.7 L214.2,456.1 L201.5,456.0 L199.7,453.6 L199.7,463.4 L190.6,470.1 L192.3,464.7 L188.0,465.4 L183.4,455.6 L179.6,455.9 L177.9,453.0 L172.1,456.6 L157.6,448.6 L147.4,449.4 L137.3,441.6 L130.8,447.4 L133.1,450.2 L138.1,449.4 L136.6,453.0 L125.5,451.2 L119.0,454.5 L111.5,452.6 L106.9,455.4 L104.4,454.3 L106.1,452.6 L103.6,453.2 L101.1,446.6 L104.8,432.4 L103.6,423.8 L109.2,412.4 L111.2,397.7 L124.4,379.1 L115.3,375.0 L105.3,374.9 L97.7,367.8 L93.1,371.2 L86.5,369.2 L85.2,371.1 L80.9,365.8 L74.5,368.5 L67.3,354.0 L61.7,352.4 L67.0,334.0 L60.2,331.9 L53.2,320.4 L55.0,311.4 L62.6,306.0 L61.4,297.1 L55.8,295.1 L58.4,289.9 L50.4,284.8 L49.1,280.8 L52.1,274.1 L50.1,270.5 L45.7,270.9 L45.2,268.0 L55.0,260.9 L51.9,257.7 L57.0,248.2 L56.5,241.6 L47.6,225.6 L55.3,223.7 L54.3,220.7 L61.6,224.8 L75.1,220.1 L77.3,216.3 L73.0,211.9 L84.7,202.7 L85.4,195.5 L82.9,190.8 L74.2,190.3 L72.7,185.9 L75.1,185.0 L74.9,180.9 L84.4,181.4 L90.3,161.3 L90.4,148.0 L92.4,144.0 L96.2,144.9 L84.6,140.9 L85.5,133.6 L88.6,132.3 L86.7,129.6 L91.4,125.3 L118.7,123.1 L123.3,131.4 L120.2,136.0 L124.5,139.1 L128.3,135.6 L125.4,132.9 L126.8,128.2 L136.3,131.9 L134.7,141.9 L136.7,131.8 L134.0,123.5 L137.5,114.3 L146.7,116.4 L158.5,114.2 L171.1,129.4 L179.5,131.9 L171.1,128.2 L164.8,116.4 L148.6,110.7 L145.8,105.4 L151.3,105.7 L152.0,102.0 L145.1,97.6 L150.2,90.2 L140.5,92.8 L137.9,89.1 L141.1,88.0 L139.5,85.4 L147.6,84.8 L151.8,80.0 L140.9,67.7 L139.9,59.0 L148.2,58.9 L159.7,64.1 L171.0,60.6 L179.3,66.5 L183.4,65.3 L185.8,69.5 L182.8,71.0 L186.5,71.4 L186.1,77.1 L179.8,81.7 L190.1,80.8 L192.1,82.5 L190.0,89.8 L196.0,83.4 L209.9,90.6 L223.6,86.5 L221.3,88.0 L221.3,97.4 L210.7,104.6 L215.2,109.3 L224.9,106.4 L227.2,110.3 L234.5,112.4 L242.3,99.0 L255.8,96.9 L256.7,102.0 L256.5,97.5 L270.9,81.0 L284.0,83.9 L267.7,86.4 L265.3,92.8 L268.3,93.5 L269.0,89.4 L275.8,85.2 L276.0,87.3 L281.7,88.0 L287.8,83.9 L290.5,92.2 L296.4,94.7 L302.4,102.0 L310.7,98.0 L314.0,101.7 L311.9,105.4 L317.3,110.9 L314.3,115.3 L321.7,120.5 L329.4,120.7 L327.6,123.1 L335.4,147.7 L332.1,158.6 L325.3,163.4 L324.6,169.3 L342.2,184.0 L338.9,194.5 L344.5,202.4 L343.7,208.6 L346.2,211.0 L340.3,225.7 L345.2,233.6 L344.5,240.5 L352.7,245.6 L355.0,256.3 L351.2,269.5 L345.4,279.3 L341.2,277.4 L341.7,273.3 L339.1,273.8 L339.9,270.4 L336.7,267.1 L330.2,267.1 L328.5,270.0 L333.4,273.3 L332.2,275.5 L319.1,279.7 L314.9,284.0 L305.5,284.9 L301.8,290.8 L299.1,289.1 L292.1,296.2 L287.0,296.4 L285.0,301.2 L280.5,299.1 L270.1,302.0 L263.0,314.3 L260.9,309.2 L255.4,306.0 L261.2,320.6 L270.5,328.1 L265.8,336.9 L274.6,353.7 L279.1,359.0 L286.6,361.0 L292.7,370.5 L296.8,371.9 L302.2,379.9 L307.2,379.8 Z M327.5,110.6 L327.2,113.9 L315.0,115.4 L318.1,112.7 L317.2,107.6 L322.1,110.5 L322.2,107.0 L318.6,103.7 L316.8,106.8 L315.8,104.6 L312.8,106.1 L312.4,98.5 Z M77.0,128.6 L75.6,130.9 L72.3,128.9 Z M227.7,81.5 L229.6,85.0 L219.2,82.1 L223.1,78.4 Z M310.2,86.2 L312.6,88.7 L311.1,92.3 L308.7,91.3 L310.7,89.4 L307.5,90.2 L309.1,88.3 L302.9,89.1 L298.8,92.5 L300.4,95.0 L298.0,92.0 L291.7,91.7 L291.7,87.0 L295.7,86.5 L291.9,84.3 L295.9,81.3 L291.5,78.0 L296.7,79.3 L299.1,75.8 L298.4,79.1 L299.4,76.9 L301.2,80.8 L304.2,79.5 L304.2,76.5 L299.1,74.3 L295.2,76.9 L296.6,72.7 L294.4,72.1 L300.8,70.2 L301.0,75.8 L308.3,75.7 L309.5,78.2 L306.2,82.8 Z M128.8,69.9 L130.7,73.6 L127.5,71.4 Z M134.4,66.5 L137.7,68.0 L136.7,70.3 L130.9,68.8 Z M129.8,56.2 L130.7,59.1 L139.7,59.1 L128.0,60.7 L127.2,67.3 L127.7,58.1 L130.2,51.5 L133.3,50.7 Z"
        fill="rgba(46,112,168,0.34)" stroke="rgba(255,255,255,0.82)"
        stroke-width="2.8" stroke-linejoin="round" fill-rule="evenodd"/>
  <g id="major-cities" fill="#f8fafc" font-family="DejaVu Sans, Arial, sans-serif"
     font-size="12" font-weight="700" stroke="#10213a" stroke-width="3"
     paint-order="stroke fill">
    <g id="city-hamburg">
      <circle cx="185.0" cy="131.5" r="4" fill="#fbbf24" stroke="#10213a" stroke-width="2"/>
      <text x="194" y="127">Hamburg</text>
    </g>
    <g id="city-berlin">
      <circle cx="300.3" cy="187.1" r="4" fill="#fbbf24" stroke="#10213a" stroke-width="2"/>
      <text x="309" y="142">Berlin</text>
    </g>
    <g id="city-cologne">
      <circle cx="82.5" cy="272.4" r="4" fill="#fbbf24" stroke="#10213a" stroke-width="2"/>
      <text x="91" y="268">Köln</text>
    </g>
    <g id="city-frankfurt">
      <circle cx="140.7" cy="317.0" r="4" fill="#fbbf24" stroke="#10213a" stroke-width="2"/>
      <text x="149" y="313">Frankfurt</text>
    </g>
    <g id="city-stuttgart">
      <circle cx="157.6" cy="389.0" r="4" fill="#fbbf24" stroke="#10213a" stroke-width="2"/>
      <text x="149" y="376" text-anchor="end">Stuttgart</text>
    </g>
    <g id="city-munich">
      <circle cx="238.7" cy="423.5" r="4" fill="#fbbf24" stroke="#10213a" stroke-width="2"/>
      <text x="247" y="438">Münih</text>
    </g>
  </g>
</svg>
